<svg xmlns="http://www.w3.org/2000/svg" viewBox="0 0 64 64" width="64" height="64">
  <defs>
    <linearGradient id="zipGrad" x1="0%" y1="0%" x2="0%" y2="100%">
      <stop offset="0%" style="stop-color:#5B9BD5;stop-opacity:1" />
      <stop offset="100%" style="stop-color:#2E75B6;stop-opacity:1" />
    </linearGradient>
  </defs>
  <!-- Main folder/archive shape -->
  <rect x="8" y="12" width="48" height="44" rx="4" ry="4" fill="url(#zipGrad)" stroke="#1F4E79" stroke-width="1.5"/>
  <!-- Folder tab -->
  <path d="M8 16 L8 12 Q8 8 12 8 L28 8 L32 12 L52 12 Q56 12 56 16" fill="url(#zipGrad)" stroke="#1F4E79" stroke-width="1.5"/>
  <!-- Zipper track -->
  <rect x="28" y="18" width="8" height="32" fill="#FFD966" stroke="#BF9000" stroke-width="1"/>
  <!-- Zipper teeth left -->
  <rect x="28" y="20" width="4" height="3" fill="#BF9000"/>
  <rect x="28" y="26" width="4" height="3" fill="#BF9000"/>
  <rect x="28" y="32" width="4" height="3" fill="#BF9000"/>
  <rect x="28" y="38" width="4" height="3" fill="#BF9000"/>
  <rect x="28" y="44" width="4" height="3" fill="#BF9000"/>
  <!-- Zipper teeth right -->
  <rect x="32" y="23" width="4" height="3" fill="#BF9000"/>
  <rect x="32" y="29" width="4" height="3" fill="#BF9000"/>
  <rect x="32" y="35" width="4" height="3" fill="#BF9000"/>
  <rect x="32" y="41" width="4" height="3" fill="#BF9000"/>
  <!-- Zipper pull -->
  <rect x="29" y="48" width="6" height="6" rx="1" fill="#BF9000" stroke="#7F6000" stroke-width="0.5"/>
  <circle cx="32" cy="51" r="1.5" fill="#7F6000"/>
</svg>
